<svg id="svg" xmlns="http://www.w3.org/2000/svg" xmlns:xlink="http://www.w3.org/1999/xlink" width="400" height="400" viewBox="0, 0, 400,400"><g id="svgg"><path id="path0" d="M119.200 67.617 C 117.990 67.784,115.952 67.939,114.671 67.960 C 103.075 68.157,93.553 75.620,89.869 87.400 C 87.789 94.047,87.796 93.966,87.861 111.553 C 87.918 126.850,88.075 130.076,89.224 139.600 C 89.450 141.470,89.815 146.150,90.037 150.000 C 90.476 157.641,90.928 162.670,91.566 167.000 C 91.793 168.540,92.162 172.590,92.387 176.000 C 92.611 179.410,92.976 183.512,93.197 185.116 C 93.419 186.720,93.600 189.429,93.600 191.136 L 93.600 194.239 92.272 194.720 C 90.668 195.299,77.397 195.382,75.246 194.826 C 74.451 194.620,72.360 194.153,70.600 193.788 C 57.778 191.127,49.604 186.326,37.200 174.170 C 28.301 165.449,26.704 164.565,24.702 167.250 C 23.185 169.284,26.451 174.028,35.834 183.421 C 46.111 193.709,61.078 201.386,75.200 203.612 C 76.850 203.872,79.190 204.378,80.400 204.736 C 82.279 205.292,85.916 205.417,105.357 205.594 C 131.889 205.834,129.665 205.347,127.485 210.441 C 122.991 220.944,123.152 232.634,127.925 242.400 C 139.203 265.472,174.444 266.942,188.408 244.924 C 194.016 236.081,195.110 220.885,190.802 211.679 C 188.087 205.878,188.550 205.600,200.930 205.600 C 212.193 205.600,213.170 205.948,211.405 209.332 C 202.499 226.408,209.218 248.624,225.800 256.926 C 236.553 262.310,251.968 261.677,261.316 255.468 C 271.791 248.510,276.534 239.327,276.536 226.000 C 276.537 217.512,276.446 217.035,273.552 210.333 C 271.413 205.382,270.282 205.620,296.600 205.468 C 312.063 205.379,319.194 205.197,320.600 204.856 C 321.700 204.590,324.130 204.122,326.000 203.816 C 327.870 203.511,330.480 202.958,331.800 202.588 C 333.120 202.217,334.740 201.780,335.400 201.615 C 343.437 199.613,356.534 192.198,362.959 186.012 C 375.360 174.072,379.816 166.863,375.038 166.472 C 372.434 166.259,371.863 166.612,366.334 171.860 C 354.953 182.662,351.060 185.601,343.172 189.352 C 338.727 191.466,336.631 192.092,325.094 194.759 C 319.351 196.087,308.240 195.102,307.867 193.233 C 307.634 192.068,308.575 177.038,309.221 171.600 C 309.682 167.728,310.159 162.525,310.743 155.000 C 310.965 152.140,311.245 149.530,311.365 149.200 C 311.484 148.870,311.779 145.090,312.020 140.800 C 312.640 129.750,313.056 123.465,313.607 116.800 C 314.119 110.597,313.949 99.886,313.286 96.600 C 313.064 95.500,312.661 93.340,312.391 91.800 C 309.774 76.865,301.301 69.387,285.000 67.625 C 280.359 67.123,122.827 67.115,119.200 67.617 M158.600 275.185 C 148.529 276.005,134.842 281.806,126.400 288.832 C 114.938 298.370,109.619 308.735,108.372 323.960 C 107.559 333.897,108.276 334.270,115.398 327.619 C 126.754 317.013,131.149 315.674,146.800 318.052 C 148.230 318.269,150.570 318.611,152.000 318.812 C 153.430 319.013,155.410 319.378,156.400 319.623 C 161.026 320.768,178.696 321.079,180.694 320.051 C 181.082 319.851,182.292 319.263,183.381 318.744 C 186.367 317.321,189.712 314.016,191.122 311.095 C 194.765 303.547,194.244 291.892,189.983 285.586 C 184.092 276.867,174.985 273.849,158.600 275.185 M227.747 275.221 C 219.475 276.300,210.997 283.243,208.236 291.200 C 207.409 293.584,207.361 303.442,208.161 306.514 C 209.886 313.139,213.591 317.165,220.527 319.955 C 223.276 321.060,239.552 320.828,245.000 319.606 C 246.100 319.360,248.080 319.009,249.400 318.827 C 250.720 318.644,252.250 318.383,252.800 318.245 C 265.877 314.965,274.543 317.359,285.000 327.140 C 289.963 331.783,290.868 332.309,292.287 331.380 L 293.313 330.707 293.070 326.054 C 292.661 318.213,291.254 312.002,288.528 306.000 C 279.292 285.666,252.335 272.015,227.747 275.221 " stroke="none" fill="#040404" fill-rule="evenodd"></path><path id="path1" d="M178.802 0.276 C 176.933 0.364,175.232 0.608,175.022 0.818 C 174.812 1.028,173.416 1.200,171.920 1.200 C 170.373 1.200,169.200 1.373,169.200 1.600 C 169.200 1.822,168.141 2.000,166.824 2.000 C 165.517 2.000,164.336 2.180,164.200 2.400 C 164.064 2.620,163.164 2.800,162.200 2.800 C 161.236 2.800,160.336 2.980,160.200 3.200 C 160.064 3.420,159.254 3.600,158.400 3.600 C 157.546 3.600,156.736 3.780,156.600 4.000 C 156.464 4.220,155.553 4.400,154.576 4.400 C 153.599 4.400,152.800 4.580,152.800 4.800 C 152.800 5.020,152.181 5.200,151.424 5.200 C 150.667 5.200,149.936 5.380,149.800 5.600 C 149.664 5.820,148.933 6.000,148.176 6.000 C 147.419 6.000,146.800 6.180,146.800 6.400 C 146.800 6.620,146.271 6.800,145.624 6.800 C 144.977 6.800,144.336 6.980,144.200 7.200 C 144.064 7.420,143.434 7.600,142.800 7.600 C 142.166 7.600,141.536 7.780,141.400 8.000 C 141.264 8.220,140.623 8.400,139.976 8.400 C 139.329 8.400,138.800 8.580,138.800 8.800 C 138.800 9.020,138.260 9.200,137.600 9.200 C 136.940 9.200,136.400 9.356,136.400 9.546 C 136.400 9.736,135.563 10.006,134.540 10.146 C 133.518 10.286,132.483 10.543,132.240 10.717 C 131.998 10.891,131.080 11.263,130.200 11.543 C 128.523 12.077,127.074 12.652,125.905 13.247 C 125.523 13.441,124.938 13.600,124.605 13.600 C 124.272 13.600,124.000 13.747,124.000 13.928 C 124.000 14.108,123.100 14.500,122.000 14.800 C 120.900 15.100,120.000 15.492,120.000 15.672 C 120.000 15.853,119.640 16.000,119.200 16.000 C 118.760 16.000,118.400 16.180,118.400 16.400 C 118.400 16.620,118.170 16.800,117.890 16.800 C 117.609 16.800,116.304 17.334,114.990 17.987 C 113.675 18.641,112.375 19.181,112.100 19.187 C 111.825 19.194,111.600 19.380,111.600 19.600 C 111.600 19.820,111.240 20.000,110.800 20.000 C 110.360 20.000,110.000 20.180,110.000 20.400 C 110.000 20.620,109.640 20.800,109.200 20.800 C 108.760 20.800,108.400 20.980,108.400 21.200 C 108.400 21.420,108.040 21.600,107.600 21.600 C 107.160 21.600,106.800 21.780,106.800 22.000 C 106.800 22.220,106.530 22.400,106.200 22.400 C 105.870 22.400,105.600 22.546,105.600 22.725 C 105.600 22.904,104.970 23.298,104.200 23.600 C 103.430 23.902,102.800 24.296,102.800 24.475 C 102.800 24.654,102.440 24.800,102.000 24.800 C 101.560 24.800,101.200 24.980,101.200 25.200 C 101.200 25.420,100.840 25.600,100.400 25.600 C 99.960 25.600,99.600 25.780,99.600 26.000 C 99.600 26.220,99.330 26.400,99.000 26.400 C 98.670 26.400,98.400 26.541,98.400 26.712 C 98.400 26.884,97.905 27.231,97.300 27.484 C 96.214 27.938,93.988 29.211,93.600 29.601 C 93.490 29.711,92.905 30.056,92.300 30.368 C 91.695 30.680,91.200 31.085,91.200 31.268 C 91.200 31.450,90.880 31.600,90.488 31.600 C 90.097 31.600,89.517 31.960,89.200 32.400 C 88.883 32.840,88.343 33.200,88.000 33.200 C 87.657 33.200,87.117 33.560,86.800 34.000 C 86.483 34.440,86.038 34.800,85.812 34.800 C 85.585 34.801,84.860 35.266,84.200 35.835 C 83.540 36.404,82.505 37.163,81.900 37.521 C 81.295 37.879,80.800 38.314,80.800 38.486 C 80.800 38.659,80.575 38.801,80.300 38.802 C 80.025 38.803,79.225 39.343,78.522 40.002 C 77.819 40.661,77.126 41.200,76.982 41.200 C 76.839 41.200,76.242 41.713,75.655 42.341 C 75.069 42.968,74.052 43.768,73.395 44.119 C 72.738 44.469,70.944 45.936,69.408 47.378 C 67.873 48.820,66.481 50.000,66.315 50.000 C 66.149 50.000,64.705 51.349,63.106 52.998 C 59.002 57.231,56.427 59.805,53.298 62.800 C 51.804 64.230,49.956 66.199,49.191 67.176 C 48.426 68.153,47.113 69.683,46.274 70.576 C 45.435 71.469,44.464 72.738,44.115 73.395 C 43.766 74.052,42.968 75.069,42.341 75.655 C 41.713 76.242,41.200 76.827,41.200 76.956 C 41.200 77.189,40.265 78.400,39.300 79.416 C 39.025 79.706,38.800 80.044,38.800 80.167 C 38.800 80.390,37.849 81.617,36.900 82.616 C 36.625 82.906,36.400 83.336,36.400 83.571 C 36.400 83.807,36.250 84.000,36.068 84.000 C 35.885 84.000,35.481 84.495,35.170 85.100 C 34.860 85.705,34.289 86.491,33.903 86.847 C 33.516 87.203,33.200 87.748,33.200 88.059 C 33.200 88.369,32.840 88.883,32.400 89.200 C 31.960 89.517,31.600 90.097,31.600 90.488 C 31.600 90.880,31.442 91.200,31.249 91.200 C 31.055 91.200,30.673 91.740,30.400 92.400 C 30.127 93.060,29.790 93.601,29.651 93.601 C 29.513 93.602,28.860 94.637,28.200 95.901 C 27.540 97.166,26.896 98.290,26.768 98.400 C 26.640 98.510,26.281 99.185,25.970 99.900 C 25.659 100.615,25.269 101.200,25.102 101.200 C 24.936 101.200,24.800 101.560,24.800 102.000 C 24.800 102.440,24.620 102.800,24.400 102.800 C 24.180 102.800,24.000 103.070,24.000 103.400 C 24.000 103.730,23.856 104.000,23.680 104.000 C 23.505 104.000,23.133 104.630,22.854 105.400 C 22.576 106.170,22.180 106.800,21.974 106.800 C 21.768 106.800,21.600 107.160,21.600 107.600 C 21.600 108.040,21.420 108.400,21.200 108.400 C 20.980 108.400,20.800 108.760,20.800 109.200 C 20.800 109.640,20.620 110.000,20.400 110.000 C 20.180 110.000,20.000 110.360,20.000 110.800 C 20.000 111.240,19.864 111.600,19.698 111.600 C 19.531 111.600,19.158 112.185,18.867 112.900 C 18.577 113.615,17.993 114.892,17.570 115.738 C 17.146 116.584,16.800 117.529,16.800 117.838 C 16.800 118.147,16.620 118.400,16.400 118.400 C 16.180 118.400,16.000 118.760,16.000 119.200 C 16.000 119.640,15.853 120.000,15.672 120.000 C 15.492 120.000,15.100 120.900,14.800 122.000 C 14.500 123.100,14.108 124.000,13.928 124.000 C 13.747 124.000,13.600 124.272,13.600 124.605 C 13.600 124.938,13.441 125.523,13.247 125.905 C 12.652 127.074,12.077 128.523,11.543 130.200 C 11.263 131.080,10.891 131.998,10.717 132.240 C 10.543 132.483,10.286 133.518,10.146 134.540 C 10.006 135.563,9.736 136.400,9.546 136.400 C 9.356 136.400,9.200 136.940,9.200 137.600 C 9.200 138.260,9.020 138.800,8.800 138.800 C 8.580 138.800,8.400 139.340,8.400 140.000 C 8.400 140.660,8.220 141.200,8.000 141.200 C 7.780 141.200,7.600 141.819,7.600 142.576 C 7.600 143.333,7.420 144.064,7.200 144.200 C 6.980 144.336,6.800 144.966,6.800 145.600 C 6.800 146.234,6.620 146.864,6.400 147.000 C 6.180 147.136,6.000 147.766,6.000 148.400 C 6.000 149.034,5.820 149.664,5.600 149.800 C 5.380 149.936,5.200 150.667,5.200 151.424 C 5.200 152.181,5.020 152.800,4.800 152.800 C 4.580 152.800,4.400 153.599,4.400 154.576 C 4.400 155.553,4.220 156.464,4.000 156.600 C 3.780 156.736,3.600 157.546,3.600 158.400 C 3.600 159.254,3.420 160.064,3.200 160.200 C 2.980 160.336,2.800 161.236,2.800 162.200 C 2.800 163.164,2.620 164.064,2.400 164.200 C 2.180 164.336,2.000 165.416,2.000 166.600 C 2.000 167.784,1.820 168.864,1.600 169.000 C 1.380 169.136,1.200 170.482,1.200 171.990 C 1.200 173.829,1.035 174.788,0.700 174.900 C -0.032 175.144,-0.032 224.856,0.700 225.100 C 1.035 225.212,1.200 226.171,1.200 228.010 C 1.200 229.518,1.380 230.864,1.600 231.000 C 1.820 231.136,2.000 232.216,2.000 233.400 C 2.000 234.584,2.180 235.664,2.400 235.800 C 2.620 235.936,2.800 236.937,2.800 238.024 C 2.800 239.111,2.980 240.000,3.200 240.000 C 3.420 240.000,3.600 240.709,3.600 241.576 C 3.600 242.443,3.780 243.264,4.000 243.400 C 4.220 243.536,4.400 244.447,4.400 245.424 C 4.400 246.401,4.580 247.200,4.800 247.200 C 5.020 247.200,5.200 247.920,5.200 248.800 C 5.200 249.680,5.380 250.400,5.600 250.400 C 5.820 250.400,6.000 251.019,6.000 251.776 C 6.000 252.533,6.180 253.264,6.400 253.400 C 6.620 253.536,6.800 254.177,6.800 254.824 C 6.800 255.471,6.980 256.000,7.200 256.000 C 7.420 256.000,7.600 256.630,7.600 257.400 C 7.600 258.170,7.780 258.800,8.000 258.800 C 8.220 258.800,8.400 259.340,8.400 260.000 C 8.400 260.660,8.580 261.200,8.800 261.200 C 9.020 261.200,9.200 261.740,9.200 262.400 C 9.200 263.060,9.356 263.600,9.546 263.600 C 9.736 263.600,9.997 264.365,10.125 265.300 C 10.348 266.922,11.213 269.395,12.850 273.096 C 13.262 274.028,13.600 275.063,13.600 275.396 C 13.600 275.728,13.747 276.000,13.928 276.000 C 14.108 276.000,14.500 276.900,14.800 278.000 C 15.100 279.100,15.492 280.000,15.672 280.000 C 15.853 280.000,16.000 280.360,16.000 280.800 C 16.000 281.240,16.180 281.600,16.400 281.600 C 16.620 281.600,16.800 281.828,16.800 282.106 C 16.800 282.384,17.315 283.689,17.945 285.006 C 18.574 286.323,19.338 287.985,19.642 288.700 C 19.946 289.415,20.331 290.000,20.498 290.000 C 20.664 290.000,20.800 290.360,20.800 290.800 C 20.800 291.240,20.980 291.600,21.200 291.600 C 21.420 291.600,21.600 291.945,21.600 292.367 C 21.600 292.788,21.735 293.193,21.900 293.267 C 22.065 293.340,22.633 294.255,23.163 295.300 C 23.692 296.345,24.277 297.200,24.463 297.200 C 24.648 297.200,24.800 297.560,24.800 298.000 C 24.800 298.440,24.980 298.800,25.200 298.800 C 25.420 298.800,25.600 299.160,25.600 299.600 C 25.600 300.040,25.740 300.400,25.910 300.400 C 26.081 300.400,26.576 301.208,27.010 302.196 C 27.445 303.184,27.935 303.994,28.100 303.996 C 28.265 303.998,28.400 304.193,28.400 304.428 C 28.400 304.814,30.619 308.311,31.174 308.800 C 31.299 308.910,31.656 309.495,31.968 310.100 C 32.280 310.705,32.685 311.200,32.868 311.200 C 33.050 311.200,33.200 311.520,33.200 311.912 C 33.200 312.303,33.560 312.883,34.000 313.200 C 34.440 313.517,34.800 314.057,34.800 314.400 C 34.800 314.743,35.160 315.283,35.600 315.600 C 36.040 315.917,36.400 316.380,36.400 316.629 C 36.400 316.878,36.940 317.646,37.600 318.337 C 38.260 319.028,38.800 319.748,38.800 319.937 C 38.800 320.126,39.340 320.846,40.000 321.537 C 40.660 322.228,41.200 322.910,41.200 323.053 C 41.200 323.196,41.732 323.822,42.383 324.444 C 43.034 325.066,43.827 326.076,44.145 326.687 C 44.463 327.299,45.505 328.629,46.461 329.641 C 47.418 330.654,48.650 332.083,49.200 332.818 C 49.750 333.553,51.862 335.784,53.894 337.777 C 55.925 339.770,58.175 341.976,58.894 342.681 C 59.612 343.386,61.192 345.006,62.405 346.281 C 63.618 347.556,65.592 349.410,66.792 350.400 C 67.992 351.390,69.777 352.965,70.759 353.900 C 71.740 354.835,72.676 355.600,72.837 355.600 C 72.999 355.600,73.912 356.315,74.866 357.189 C 75.820 358.063,76.737 358.783,76.904 358.789 C 77.071 358.795,77.772 359.340,78.463 360.000 C 79.154 360.660,79.922 361.200,80.171 361.200 C 80.420 361.200,80.883 361.560,81.200 362.000 C 81.517 362.440,82.007 362.800,82.288 362.800 C 82.570 362.800,82.800 362.980,82.800 363.200 C 82.800 363.420,83.030 363.600,83.312 363.600 C 83.593 363.600,84.083 363.960,84.400 364.400 C 84.717 364.840,85.257 365.200,85.600 365.200 C 85.943 365.200,86.483 365.560,86.800 366.000 C 87.117 366.440,87.657 366.800,88.000 366.800 C 88.343 366.800,88.883 367.160,89.200 367.600 C 89.517 368.040,90.057 368.400,90.400 368.400 C 90.743 368.400,91.283 368.760,91.600 369.200 C 91.917 369.640,92.414 370.000,92.705 370.000 C 92.996 370.000,93.620 370.360,94.092 370.800 C 94.564 371.240,95.187 371.600,95.475 371.600 C 95.764 371.600,96.000 371.780,96.000 372.000 C 96.000 372.220,96.158 372.400,96.352 372.400 C 96.545 372.400,97.749 373.030,99.028 373.800 C 100.307 374.570,101.664 375.200,102.043 375.200 C 102.423 375.200,102.793 375.335,102.867 375.500 C 102.940 375.665,103.855 376.233,104.900 376.763 C 105.945 377.292,106.800 377.877,106.800 378.063 C 106.800 378.248,107.160 378.400,107.600 378.400 C 108.040 378.400,108.400 378.580,108.400 378.800 C 108.400 379.020,108.760 379.200,109.200 379.200 C 109.640 379.200,110.000 379.380,110.000 379.600 C 110.000 379.820,110.360 380.000,110.800 380.000 C 111.240 380.000,111.601 380.135,111.603 380.300 C 111.607 380.659,113.544 381.600,114.280 381.600 C 114.566 381.600,114.800 381.780,114.800 382.000 C 114.800 382.220,115.149 382.400,115.576 382.400 C 116.003 382.400,116.464 382.580,116.600 382.800 C 116.736 383.020,117.197 383.200,117.624 383.200 C 118.051 383.200,118.400 383.380,118.400 383.600 C 118.400 383.820,118.760 384.000,119.200 384.000 C 119.640 384.000,120.000 384.180,120.000 384.400 C 120.000 384.620,120.349 384.800,120.776 384.800 C 121.203 384.800,121.664 384.980,121.800 385.200 C 121.936 385.420,122.487 385.600,123.024 385.600 C 123.561 385.600,124.000 385.780,124.000 386.000 C 124.000 386.220,124.272 386.400,124.604 386.400 C 124.937 386.400,126.062 386.778,127.104 387.240 C 128.147 387.702,129.360 388.235,129.800 388.425 C 131.928 389.342,139.328 391.600,140.206 391.600 C 140.753 391.600,141.200 391.780,141.200 392.000 C 141.200 392.220,141.830 392.400,142.600 392.400 C 143.370 392.400,144.000 392.580,144.000 392.800 C 144.000 393.020,144.619 393.200,145.376 393.200 C 146.133 393.200,146.864 393.380,147.000 393.600 C 147.136 393.820,147.777 394.000,148.424 394.000 C 149.071 394.000,149.600 394.180,149.600 394.400 C 149.600 394.620,150.320 394.800,151.200 394.800 C 152.080 394.800,152.800 394.980,152.800 395.200 C 152.800 395.420,153.599 395.600,154.576 395.600 C 155.553 395.600,156.464 395.780,156.600 396.000 C 156.736 396.220,157.557 396.400,158.424 396.400 C 159.291 396.400,160.000 396.580,160.000 396.800 C 160.000 397.020,160.889 397.200,161.976 397.200 C 163.063 397.200,164.064 397.380,164.200 397.600 C 164.336 397.820,165.416 398.000,166.600 398.000 C 167.784 398.000,168.864 398.180,169.000 398.400 C 169.136 398.620,170.482 398.800,171.990 398.800 C 173.829 398.800,174.788 398.965,174.900 399.300 C 175.144 400.032,224.856 400.032,225.100 399.300 C 225.212 398.965,226.171 398.800,228.010 398.800 C 229.518 398.800,230.864 398.620,231.000 398.400 C 231.136 398.180,232.216 398.000,233.400 398.000 C 234.584 398.000,235.664 397.820,235.800 397.600 C 235.936 397.380,236.937 397.200,238.024 397.200 C 239.111 397.200,240.000 397.020,240.000 396.800 C 240.000 396.580,240.709 396.400,241.576 396.400 C 242.443 396.400,243.264 396.220,243.400 396.000 C 243.536 395.780,244.346 395.600,245.200 395.600 C 246.054 395.600,246.864 395.420,247.000 395.200 C 247.136 394.980,247.957 394.800,248.824 394.800 C 249.691 394.800,250.400 394.620,250.400 394.400 C 250.400 394.180,251.019 394.000,251.776 394.000 C 252.533 394.000,253.264 393.820,253.400 393.600 C 253.536 393.380,254.177 393.200,254.824 393.200 C 255.471 393.200,256.000 393.020,256.000 392.800 C 256.000 392.580,256.630 392.400,257.400 392.400 C 258.170 392.400,258.800 392.243,258.800 392.052 C 258.800 391.860,259.716 391.582,260.835 391.433 C 261.954 391.285,263.169 390.997,263.535 390.794 C 263.901 390.591,265.010 390.159,266.000 389.835 C 269.329 388.743,272.001 387.733,272.268 387.465 C 272.414 387.319,272.953 387.200,273.467 387.200 C 273.980 387.200,274.400 387.020,274.400 386.800 C 274.400 386.580,274.760 386.400,275.200 386.400 C 275.640 386.400,276.000 386.220,276.000 386.000 C 276.000 385.780,276.450 385.600,277.000 385.600 C 277.550 385.600,278.000 385.420,278.000 385.200 C 278.000 384.980,278.450 384.800,279.000 384.800 C 279.550 384.800,280.000 384.620,280.000 384.400 C 280.000 384.180,280.360 384.000,280.800 384.000 C 281.240 384.000,281.600 383.820,281.600 383.600 C 281.600 383.380,281.872 383.200,282.205 383.200 C 282.538 383.200,283.123 383.032,283.505 382.826 C 283.887 382.621,284.785 382.217,285.500 381.929 C 286.215 381.640,286.800 381.269,286.800 381.102 C 286.800 380.936,287.034 380.800,287.320 380.800 C 288.056 380.800,289.993 379.859,289.997 379.500 C 289.999 379.335,290.360 379.200,290.800 379.200 C 291.240 379.200,291.600 379.020,291.600 378.800 C 291.600 378.580,291.945 378.400,292.367 378.400 C 292.788 378.400,293.193 378.265,293.267 378.100 C 293.340 377.935,294.255 377.367,295.300 376.837 C 296.345 376.308,297.200 375.745,297.200 375.587 C 297.200 375.429,297.718 375.196,298.350 375.070 C 298.983 374.943,300.314 374.291,301.308 373.620 C 302.303 372.949,303.237 372.400,303.386 372.400 C 303.534 372.400,304.441 371.860,305.400 371.200 C 306.359 370.540,307.297 370.000,307.484 370.000 C 307.671 370.000,308.083 369.640,308.400 369.200 C 308.717 368.760,309.257 368.400,309.600 368.400 C 309.943 368.400,310.483 368.040,310.800 367.600 C 311.117 367.160,311.657 366.800,312.000 366.800 C 312.343 366.800,312.883 366.440,313.200 366.000 C 313.517 365.560,314.057 365.200,314.400 365.200 C 314.743 365.200,315.283 364.840,315.600 364.400 C 315.917 363.960,316.380 363.600,316.629 363.600 C 316.878 363.600,317.646 363.060,318.337 362.400 C 319.028 361.740,319.774 361.200,319.996 361.200 C 320.218 361.200,320.400 361.020,320.400 360.800 C 320.400 360.580,320.630 360.400,320.912 360.400 C 321.193 360.400,321.683 360.040,322.000 359.600 C 322.317 359.160,322.762 358.794,322.988 358.787 C 323.215 358.779,324.289 357.969,325.375 356.987 C 326.461 356.004,327.510 355.200,327.706 355.200 C 327.902 355.200,328.724 354.519,329.531 353.687 C 330.339 352.855,331.630 351.733,332.400 351.194 C 333.170 350.654,335.561 348.410,337.713 346.207 C 339.865 344.003,341.782 342.046,341.972 341.859 C 342.162 341.671,344.226 339.644,346.559 337.354 C 348.891 335.064,350.800 333.046,350.800 332.869 C 350.800 332.692,351.880 331.416,353.200 330.033 C 354.520 328.650,355.600 327.372,355.600 327.193 C 355.600 327.015,356.315 326.088,357.189 325.134 C 358.063 324.180,358.783 323.215,358.789 322.988 C 358.795 322.762,359.160 322.317,359.600 322.000 C 360.040 321.683,360.400 321.193,360.400 320.912 C 360.400 320.630,360.580 320.400,360.800 320.400 C 361.020 320.400,361.200 320.218,361.200 319.996 C 361.200 319.774,361.740 319.028,362.400 318.337 C 363.060 317.646,363.600 316.878,363.600 316.629 C 363.600 316.380,363.960 315.917,364.400 315.600 C 364.840 315.283,365.200 314.743,365.200 314.400 C 365.200 314.057,365.560 313.517,366.000 313.200 C 366.440 312.883,366.800 312.343,366.800 312.000 C 366.800 311.657,367.160 311.117,367.600 310.800 C 368.040 310.483,368.400 309.943,368.400 309.600 C 368.400 309.257,368.760 308.717,369.200 308.400 C 369.640 308.083,370.000 307.671,370.000 307.484 C 370.000 307.297,370.540 306.359,371.200 305.400 C 371.860 304.441,372.400 303.534,372.400 303.386 C 372.400 303.237,372.938 302.319,373.596 301.344 C 374.254 300.369,374.913 299.089,375.061 298.499 C 375.209 297.909,375.661 297.072,376.065 296.638 C 376.469 296.204,376.800 295.613,376.800 295.325 C 376.800 295.036,376.980 294.800,377.200 294.800 C 377.420 294.800,377.600 294.440,377.600 294.000 C 377.600 293.560,377.780 293.200,378.000 293.200 C 378.220 293.200,378.400 292.840,378.400 292.400 C 378.400 291.960,378.580 291.600,378.800 291.600 C 379.020 291.600,379.200 291.255,379.200 290.833 C 379.200 290.412,379.336 290.007,379.502 289.933 C 379.668 289.860,380.407 288.540,381.144 287.000 C 381.881 285.460,382.645 283.887,382.842 283.505 C 383.039 283.123,383.200 282.538,383.200 282.205 C 383.200 281.872,383.380 281.600,383.600 281.600 C 383.820 281.600,384.000 281.240,384.000 280.800 C 384.000 280.360,384.180 280.000,384.400 280.000 C 384.620 280.000,384.800 279.651,384.800 279.224 C 384.800 278.797,384.980 278.336,385.200 278.200 C 385.420 278.064,385.600 277.513,385.600 276.976 C 385.600 276.439,385.780 276.000,386.000 276.000 C 386.220 276.000,386.400 275.640,386.400 275.200 C 386.400 274.760,386.580 274.400,386.800 274.400 C 387.020 274.400,387.200 273.980,387.200 273.467 C 387.200 272.953,387.319 272.414,387.465 272.268 C 388.095 271.638,391.600 261.039,391.600 259.764 C 391.600 259.234,391.780 258.800,392.000 258.800 C 392.220 258.800,392.400 258.170,392.400 257.400 C 392.400 256.630,392.560 256.000,392.756 256.000 C 392.952 256.000,393.227 255.325,393.368 254.500 C 393.990 250.849,394.107 250.400,394.444 250.400 C 394.640 250.400,394.800 249.691,394.800 248.824 C 394.800 247.957,394.980 247.136,395.200 247.000 C 395.420 246.864,395.600 246.054,395.600 245.200 C 395.600 244.346,395.780 243.536,396.000 243.400 C 396.220 243.264,396.400 242.443,396.400 241.576 C 396.400 240.709,396.580 240.000,396.800 240.000 C 397.020 240.000,397.200 239.111,397.200 238.024 C 397.200 236.937,397.380 235.936,397.600 235.800 C 397.820 235.664,398.000 234.584,398.000 233.400 C 398.000 232.216,398.180 231.136,398.400 231.000 C 398.620 230.864,398.800 229.518,398.800 228.010 C 398.800 226.171,398.965 225.212,399.300 225.100 C 399.693 224.969,399.800 219.591,399.800 200.000 C 399.800 180.409,399.693 175.031,399.300 174.900 C 398.965 174.788,398.800 173.829,398.800 171.990 C 398.800 170.482,398.620 169.136,398.400 169.000 C 398.180 168.864,398.000 167.784,398.000 166.600 C 398.000 165.416,397.820 164.336,397.600 164.200 C 397.380 164.064,397.200 163.063,397.200 161.976 C 397.200 160.889,397.020 160.000,396.800 160.000 C 396.580 160.000,396.400 159.291,396.400 158.424 C 396.400 157.557,396.220 156.736,396.000 156.600 C 395.780 156.464,395.600 155.553,395.600 154.576 C 395.600 153.599,395.420 152.800,395.200 152.800 C 394.980 152.800,394.800 152.080,394.800 151.200 C 394.800 150.320,394.620 149.600,394.400 149.600 C 394.180 149.600,394.000 148.970,394.000 148.200 C 394.000 147.430,393.820 146.800,393.600 146.800 C 393.380 146.800,393.200 146.170,393.200 145.400 C 393.200 144.630,393.020 144.000,392.800 144.000 C 392.580 144.000,392.400 143.370,392.400 142.600 C 392.400 141.830,392.220 141.200,392.000 141.200 C 391.780 141.200,391.600 140.753,391.600 140.206 C 391.600 139.312,389.348 131.953,388.385 129.700 C 388.173 129.205,387.799 128.305,387.553 127.700 C 387.308 127.095,386.948 126.287,386.753 125.905 C 386.559 125.523,386.400 124.938,386.400 124.605 C 386.400 124.272,386.220 124.000,386.000 124.000 C 385.780 124.000,385.600 123.561,385.600 123.024 C 385.600 122.487,385.420 121.936,385.200 121.800 C 384.980 121.664,384.800 121.203,384.800 120.776 C 384.800 120.349,384.620 120.000,384.400 120.000 C 384.180 120.000,384.000 119.640,384.000 119.200 C 384.000 118.760,383.820 118.400,383.600 118.400 C 383.380 118.400,383.200 118.051,383.200 117.624 C 383.200 117.197,383.020 116.736,382.800 116.600 C 382.580 116.464,382.400 116.003,382.400 115.576 C 382.400 115.149,382.220 114.800,382.000 114.800 C 381.780 114.800,381.600 114.566,381.600 114.280 C 381.600 113.544,380.659 111.607,380.300 111.603 C 380.135 111.601,380.000 111.240,380.000 110.800 C 380.000 110.360,379.820 110.000,379.600 110.000 C 379.380 110.000,379.200 109.640,379.200 109.200 C 379.200 108.760,379.020 108.400,378.800 108.400 C 378.580 108.400,378.400 108.040,378.400 107.600 C 378.400 107.160,378.254 106.800,378.075 106.800 C 377.896 106.800,377.502 106.170,377.200 105.400 C 376.898 104.630,376.504 104.000,376.325 104.000 C 376.146 104.000,376.000 103.730,376.000 103.400 C 376.000 103.070,375.820 102.800,375.600 102.800 C 375.380 102.800,375.200 102.474,375.200 102.076 C 375.200 101.679,374.570 100.307,373.800 99.028 C 373.030 97.749,372.400 96.545,372.400 96.352 C 372.400 96.158,372.220 96.000,372.000 96.000 C 371.780 96.000,371.600 95.764,371.600 95.475 C 371.600 95.187,371.240 94.564,370.800 94.092 C 370.360 93.620,370.000 92.996,370.000 92.705 C 370.000 92.414,369.640 91.917,369.200 91.600 C 368.760 91.283,368.400 90.743,368.400 90.400 C 368.400 90.057,368.040 89.517,367.600 89.200 C 367.160 88.883,366.800 88.343,366.800 88.000 C 366.800 87.657,366.440 87.117,366.000 86.800 C 365.560 86.483,365.200 85.943,365.200 85.600 C 365.200 85.257,364.840 84.717,364.400 84.400 C 363.960 84.083,363.600 83.593,363.600 83.312 C 363.600 83.030,363.420 82.800,363.200 82.800 C 362.980 82.800,362.800 82.570,362.800 82.288 C 362.800 82.007,362.440 81.517,362.000 81.200 C 361.560 80.883,361.200 80.420,361.200 80.171 C 361.200 79.922,360.660 79.154,360.000 78.463 C 359.340 77.772,358.800 77.071,358.800 76.903 C 358.800 76.736,358.080 75.812,357.200 74.849 C 356.320 73.887,355.599 72.987,355.598 72.849 C 355.597 72.712,354.832 71.786,353.898 70.790 C 352.964 69.795,351.728 68.355,351.152 67.590 C 350.576 66.826,348.731 64.850,347.053 63.200 C 345.375 61.550,343.417 59.608,342.701 58.884 C 335.960 52.064,333.026 49.200,332.781 49.200 C 332.622 49.200,331.436 48.199,330.146 46.975 C 328.856 45.751,327.299 44.484,326.687 44.158 C 326.076 43.833,325.066 43.034,324.444 42.383 C 323.822 41.732,323.196 41.200,323.053 41.200 C 322.910 41.200,322.228 40.660,321.537 40.000 C 320.846 39.340,320.078 38.800,319.829 38.800 C 319.580 38.800,319.117 38.440,318.800 38.000 C 318.483 37.560,318.020 37.200,317.771 37.200 C 317.522 37.200,316.754 36.660,316.063 36.000 C 315.372 35.340,314.575 34.800,314.292 34.800 C 314.009 34.800,313.517 34.440,313.200 34.000 C 312.883 33.560,312.343 33.200,312.000 33.200 C 311.657 33.200,311.117 32.840,310.800 32.400 C 310.483 31.960,309.903 31.600,309.512 31.600 C 309.120 31.600,308.797 31.465,308.792 31.300 C 308.788 31.135,307.873 30.460,306.759 29.800 C 305.645 29.140,304.500 28.384,304.215 28.120 C 303.930 27.856,303.225 27.521,302.648 27.376 C 302.072 27.232,301.600 26.953,301.600 26.757 C 301.600 26.560,301.330 26.400,301.000 26.400 C 300.670 26.400,300.400 26.220,300.400 26.000 C 300.400 25.780,300.040 25.600,299.600 25.600 C 299.160 25.600,298.800 25.420,298.800 25.200 C 298.800 24.980,298.440 24.800,298.000 24.800 C 297.560 24.800,297.197 24.665,297.194 24.500 C 297.190 24.335,296.290 23.760,295.194 23.221 C 294.097 22.683,293.200 22.098,293.200 21.921 C 293.200 21.745,292.840 21.600,292.400 21.600 C 291.960 21.600,291.600 21.420,291.600 21.200 C 291.600 20.980,291.255 20.800,290.833 20.800 C 290.412 20.800,290.007 20.665,289.933 20.500 C 289.860 20.335,288.900 19.774,287.800 19.253 C 286.700 18.732,285.108 17.967,284.262 17.553 C 283.416 17.139,282.471 16.800,282.162 16.800 C 281.853 16.800,281.600 16.620,281.600 16.400 C 281.600 16.180,281.240 16.000,280.800 16.000 C 280.360 16.000,280.000 15.820,280.000 15.600 C 280.000 15.380,279.550 15.200,279.000 15.200 C 278.450 15.200,278.000 15.020,278.000 14.800 C 278.000 14.580,277.550 14.400,277.000 14.400 C 276.450 14.400,276.000 14.220,276.000 14.000 C 276.000 13.780,275.728 13.600,275.396 13.600 C 275.063 13.600,274.028 13.262,273.096 12.850 C 269.395 11.213,266.922 10.348,265.300 10.125 C 264.365 9.997,263.600 9.736,263.600 9.546 C 263.600 9.356,263.060 9.200,262.400 9.200 C 261.740 9.200,261.200 9.020,261.200 8.800 C 261.200 8.580,260.660 8.400,260.000 8.400 C 259.340 8.400,258.800 8.220,258.800 8.000 C 258.800 7.780,258.170 7.600,257.400 7.600 C 256.630 7.600,256.000 7.420,256.000 7.200 C 256.000 6.980,255.471 6.800,254.824 6.800 C 254.177 6.800,253.536 6.620,253.400 6.400 C 253.264 6.180,252.533 6.000,251.776 6.000 C 251.019 6.000,250.400 5.820,250.400 5.600 C 250.400 5.380,249.680 5.200,248.800 5.200 C 247.920 5.200,247.200 5.020,247.200 4.800 C 247.200 4.580,246.401 4.400,245.424 4.400 C 244.447 4.400,243.536 4.220,243.400 4.000 C 243.264 3.780,242.454 3.600,241.600 3.600 C 240.746 3.600,239.936 3.420,239.800 3.200 C 239.664 2.980,238.764 2.800,237.800 2.800 C 236.836 2.800,235.936 2.620,235.800 2.400 C 235.664 2.180,234.483 2.000,233.176 2.000 C 231.859 2.000,230.800 1.822,230.800 1.600 C 230.800 1.373,229.627 1.200,228.080 1.200 C 226.463 1.200,225.161 1.001,224.869 0.709 C 224.383 0.223,187.344 -0.125,178.802 0.276 M285.000 67.625 C 301.301 69.387,309.774 76.865,312.391 91.800 C 312.661 93.340,313.064 95.500,313.286 96.600 C 313.949 99.886,314.119 110.597,313.607 116.800 C 313.056 123.465,312.640 129.750,312.020 140.800 C 311.779 145.090,311.484 148.870,311.365 149.200 C 311.245 149.530,310.965 152.140,310.743 155.000 C 310.159 162.525,309.682 167.728,309.221 171.600 C 308.575 177.038,307.634 192.068,307.867 193.233 C 308.240 195.102,319.351 196.087,325.094 194.759 C 336.631 192.092,338.727 191.466,343.172 189.352 C 351.060 185.601,354.953 182.662,366.334 171.860 C 371.863 166.612,372.434 166.259,375.038 166.472 C 382.597 167.091,364.335 187.843,349.400 195.607 C 345.249 197.764,337.490 201.095,335.400 201.615 C 334.740 201.780,333.120 202.217,331.800 202.588 C 330.480 202.958,327.870 203.511,326.000 203.816 C 324.130 204.122,321.700 204.590,320.600 204.856 C 319.194 205.197,312.063 205.379,296.600 205.468 C 270.282 205.620,271.413 205.382,273.552 210.333 C 276.446 217.035,276.537 217.512,276.536 226.000 C 276.535 234.796,276.113 236.700,272.696 243.326 C 261.513 265.012,227.444 266.569,213.363 246.038 C 208.476 238.914,206.083 226.159,208.162 218.320 C 208.848 215.731,210.602 210.872,211.405 209.332 C 213.170 205.948,212.193 205.600,200.930 205.600 C 188.550 205.600,188.087 205.878,190.802 211.679 C 194.282 219.114,194.292 231.750,190.825 240.077 C 180.933 263.840,147.699 268.031,131.171 247.600 C 123.603 238.244,122.094 223.038,127.485 210.441 C 129.665 205.347,131.889 205.834,105.357 205.594 C 85.916 205.417,82.279 205.292,80.400 204.736 C 79.190 204.378,76.850 203.872,75.200 203.612 C 61.078 201.386,46.111 193.709,35.834 183.421 C 26.451 174.028,23.185 169.284,24.702 167.250 C 26.704 164.565,28.301 165.449,37.200 174.170 C 49.604 186.326,57.778 191.127,70.600 193.788 C 72.360 194.153,74.451 194.620,75.246 194.826 C 77.397 195.382,90.668 195.299,92.272 194.720 L 93.600 194.239 93.600 191.136 C 93.600 189.429,93.419 186.720,93.197 185.116 C 92.976 183.512,92.611 179.410,92.387 176.000 C 92.162 172.590,91.793 168.540,91.566 167.000 C 90.928 162.670,90.476 157.641,90.037 150.000 C 89.815 146.150,89.450 141.470,89.224 139.600 C 88.075 130.076,87.918 126.850,87.861 111.553 C 87.796 93.966,87.789 94.047,89.869 87.400 C 93.553 75.620,103.075 68.157,114.671 67.960 C 115.952 67.939,117.990 67.784,119.200 67.617 C 122.827 67.115,280.359 67.123,285.000 67.625 M172.600 275.179 C 181.383 276.202,189.396 282.286,192.386 290.200 C 193.429 292.961,193.699 304.156,192.792 307.091 C 191.179 312.314,187.615 316.727,183.381 318.744 C 182.292 319.263,181.082 319.851,180.694 320.051 C 178.696 321.079,161.026 320.768,156.400 319.623 C 155.410 319.378,153.430 319.013,152.000 318.812 C 150.570 318.611,148.230 318.269,146.800 318.052 C 131.149 315.674,126.754 317.013,115.398 327.619 C 108.276 334.270,107.559 333.897,108.372 323.960 C 109.438 310.942,113.480 301.537,121.535 293.331 C 134.723 279.895,154.065 273.019,172.600 275.179 M241.800 275.176 C 256.806 276.455,273.391 285.066,282.385 296.245 C 289.165 304.673,292.429 313.779,293.070 326.054 L 293.313 330.707 292.287 331.380 C 290.868 332.309,289.963 331.783,285.000 327.140 C 274.543 317.359,265.877 314.965,252.800 318.245 C 252.250 318.383,250.720 318.644,249.400 318.827 C 248.080 319.009,246.100 319.360,245.000 319.606 C 239.552 320.828,223.276 321.060,220.527 319.955 C 211.031 316.136,207.594 310.477,207.606 298.680 C 207.623 281.578,219.680 273.290,241.800 275.176 " stroke="none" fill="#abdbe3" fill-rule="evenodd"></path></g></svg>